<svg width="43" height="25" viewBox="0 0 43 25" fill="none" xmlns="http://www.w3.org/2000/svg">
<path d="M39.1277 24.5705C39.8632 21.6065 38.7483 18.4075 37.1969 15.8768C35.728 13.528 33.7132 11.5597 31.3859 10.0435C29.0586 8.52719 26.4295 7.42713 23.7087 6.82726C20.5285 6.12558 17.2599 6.04258 14.0325 6.344C10.7638 6.65232 7.55418 7.35055 4.40367 8.24304C4.01592 8.35891 3.61021 8.46927 3.22245 8.58513C2.64082 8.75893 2.85757 9.66687 3.43921 9.49307C6.49999 8.57305 9.60735 7.82387 12.7899 7.41086C15.9079 7.01717 19.0832 6.95414 22.1809 7.47397C24.8552 7.903 27.4664 8.8019 29.8189 10.1694C32.1104 11.479 34.154 13.2213 35.7235 15.3661C36.502 16.4268 37.1351 17.5799 37.6101 18.8019C38.1551 20.1823 38.5026 21.6979 38.3925 23.1708C38.3564 23.5511 38.3078 23.908 38.2178 24.2718C38.0937 24.8795 38.991 25.1548 39.1277 24.5705Z" fill="url(#paint0_linear_172_123)"/>
<path d="M11.1294 12.086C9.26495 11.435 7.38252 10.7785 5.51804 10.1275C4.8283 9.87651 4.04874 9.5979 3.68426 8.91774C3.37544 8.31345 3.43672 7.5877 3.66144 6.97093C4.00121 6.03681 4.7505 5.30682 5.42433 4.63205C5.8448 4.21255 5.21267 3.50897 4.7868 3.9464C3.52 5.22282 2.08603 6.85937 2.63699 8.81163C2.9026 9.75534 3.60841 10.3444 4.47417 10.7279C5.38842 11.1458 6.38175 11.4313 7.34093 11.765C8.51026 12.183 9.66703 12.5774 10.8364 12.9953C11.4291 13.1774 11.6988 12.2805 11.1294 12.086Z" fill="url(#paint1_linear_172_123)"/>
<defs>
<linearGradient id="paint0_linear_172_123" x1="11.3229" y1="13.1048" x2="61.679" y2="33.1104" gradientUnits="userSpaceOnUse">
<stop stop-color="white"/>
<stop offset="0.669792" stop-color="white" stop-opacity="0"/>
</linearGradient>
<linearGradient id="paint1_linear_172_123" x1="4.48066" y1="9.17612" x2="17.6141" y2="13.7061" gradientUnits="userSpaceOnUse">
<stop stop-color="white"/>
<stop offset="0.669792" stop-color="white" stop-opacity="0"/>
</linearGradient>
</defs>
</svg>
