<svg width="43" height="25" viewBox="0 0 43 25" fill="none" xmlns="http://www.w3.org/2000/svg">
<path d="M39.1277 24.5707C39.8632 21.6067 38.7483 18.4077 37.1969 15.8771C35.728 13.5283 33.7132 11.56 31.3859 10.0437C29.0586 8.52743 26.4295 7.42737 23.7087 6.8275C20.5285 6.12582 17.2599 6.04283 14.0325 6.34424C10.7638 6.65256 7.55418 7.35079 4.40367 8.24329C4.01591 8.35915 3.61021 8.46951 3.22245 8.58538C2.64082 8.75918 2.85758 9.66711 3.43921 9.49332C6.49999 8.5733 9.60735 7.82412 12.7899 7.41111C15.9079 7.01741 19.0832 6.95438 22.1809 7.47422C24.8552 7.90324 27.4664 8.80214 29.8189 10.1696C32.1104 11.4792 34.154 13.2215 35.7235 15.3664C36.502 16.4271 37.1351 17.5801 37.6101 18.8021C38.1551 20.1826 38.5026 21.6981 38.3925 23.1711C38.3564 23.5514 38.3078 23.9083 38.2178 24.272C38.0937 24.8797 38.991 25.155 39.1277 24.5707Z" fill="url(#paint0_linear_65_168)"/>
<path d="M11.1294 12.0863C9.26495 11.4353 7.38252 10.7788 5.51804 10.1278C4.8283 9.87675 4.04874 9.59814 3.68426 8.91798C3.37544 8.31369 3.43672 7.58795 3.66144 6.97118C4.00121 6.03705 4.7505 5.30707 5.42433 4.63229C5.8448 4.2128 5.21267 3.50921 4.7868 3.94664C3.52 5.22306 2.08603 6.85962 2.63699 8.81187C2.9026 9.75558 3.60841 10.3446 4.47417 10.7281C5.38842 11.146 6.38175 11.4315 7.34093 11.7653C8.51026 12.1832 9.66703 12.5777 10.8364 12.9956C11.4291 13.1776 11.6988 12.2808 11.1294 12.0863Z" fill="url(#paint1_linear_65_168)"/>
<defs>
<linearGradient id="paint0_linear_65_168" x1="11.3229" y1="13.105" x2="61.679" y2="33.1107" gradientUnits="userSpaceOnUse">
<stop stop-color="white"/>
<stop offset="0.669792" stop-color="white" stop-opacity="0"/>
</linearGradient>
<linearGradient id="paint1_linear_65_168" x1="4.48066" y1="9.17636" x2="17.6141" y2="13.7063" gradientUnits="userSpaceOnUse">
<stop stop-color="white"/>
<stop offset="0.669792" stop-color="white" stop-opacity="0"/>
</linearGradient>
</defs>
</svg>
