<svg width="17" height="17" viewBox="0 0 17 17" fill="none" xmlns="http://www.w3.org/2000/svg">
<g clip-path="url(#clip0_80_13)">
<path d="M2.125 10.625C3.88362 10.625 5.20259 8.5 5.20259 8.5C5.20259 8.5 6.52155 10.625 8.2802 10.625C10.0388 10.625 11.7974 8.5 11.7974 8.5C11.7974 8.5 13.556 10.625 14.875 10.625" stroke="#6B7A99" stroke-width="1.2" stroke-linecap="round" stroke-linejoin="round"/>
<path d="M2.125 14.1665C3.88362 14.1665 5.20259 12.0415 5.20259 12.0415C5.20259 12.0415 6.52155 14.1665 8.2802 14.1665C10.0388 14.1665 11.7974 12.0415 11.7974 12.0415C11.7974 12.0415 13.556 14.1665 14.875 14.1665" stroke="#6B7A99" stroke-width="1.2" stroke-linecap="round" stroke-linejoin="round"/>
<path d="M13.4587 7.08333C13.4587 4.34492 11.2387 2.125 8.50033 2.125C5.76192 2.125 3.54199 4.34492 3.54199 7.08333" stroke="#6B7A99" stroke-width="1.2" stroke-linecap="round" stroke-linejoin="round"/>
</g>
<defs>
<clipPath id="clip0_80_13">
<rect width="17" height="17" fill="white"/>
</clipPath>
</defs>
</svg>
