<svg width="17" height="17" viewBox="0 0 17 17" fill="none" xmlns="http://www.w3.org/2000/svg">
<g clip-path="url(#clip0_80_19)">
<path d="M10.6247 7.79167L7.79134 10.625L6.37467 9.20834M2.83301 11.9001V8.11191C2.83301 7.73345 2.83301 7.54411 2.87903 7.36795C2.91981 7.2119 2.98728 7.06419 3.07788 6.93072C3.18012 6.78011 3.32221 6.65522 3.60705 6.40598L7.00818 3.43C7.5362 2.96795 7.80027 2.73692 8.09762 2.64898C8.35985 2.57144 8.63936 2.57144 8.90158 2.64898C9.19915 2.73698 9.46357 2.96824 9.99242 3.43098L13.3924 6.40598C13.6773 6.65522 13.8194 6.78011 13.9217 6.93072C14.0123 7.06419 14.0792 7.2119 14.12 7.36795C14.166 7.54411 14.1663 7.73345 14.1663 8.11191V11.9026C14.1663 12.6944 14.1663 13.0907 14.0121 13.3935C13.8763 13.6601 13.659 13.8766 13.3924 14.0124C13.0897 14.1667 12.6937 14.1667 11.9019 14.1667H5.09749C4.30563 14.1667 3.90911 14.1667 3.60637 14.0124C3.3398 13.8766 3.12323 13.6601 2.98742 13.3935C2.83301 13.0904 2.83301 12.6935 2.83301 11.9001Z" stroke="#6B7A99" stroke-width="1.2" stroke-linecap="round" stroke-linejoin="round"/>
</g>
<defs>
<clipPath id="clip0_80_19">
<rect width="17" height="17" fill="white"/>
</clipPath>
</defs>
</svg>
